<svg xmlns="http://www.w3.org/2000/svg" width="20.3" height="22.2"><path class="hyperlink-path" fill="#CCC" d="M19.1 9.4L17 11.5c-.3-1-.8-1.9-1.6-2.7L17 7.2c.6-.6.3-1.5-.3-2.1l-1.6-1.6c-.5-.5-1.4-.8-2-.2L7.9 8.5c-.6.6-.4 1.4.1 2l2.8 2.8-2.1 2.1-2.8-2.8c-1.8-1.8-1.8-4.5-.1-6.2L11 1.2c1.7-1.7 4.4-1.6 6.2.2L18.8 3c1.9 1.9 2 4.7.3 6.4zM11.5 7L9.4 9.1l2.7 2.7c.6.6.8 1.5.3 2.1l-5.2 5.2c-.6.6-1.5.3-2.1-.3l-1.6-1.6c-.5-.5-.8-1.4-.2-2l1.6-1.6c-.8-.8-1.3-1.7-1.6-2.7L1.2 13c-1.7 1.7-1.6 4.4.2 6.2L3 20.8c1.8 1.8 4.7 1.9 6.3.3l5.2-5.2c1.7-1.7 1.6-4.5-.3-6.3L11.5 7z"/></svg>